<svg width="52" height="51" viewBox="0 0 52 51" fill="none" xmlns="http://www.w3.org/2000/svg">
<path d="M38.2316 0.957376C38.5887 1.10147 38.8941 1.34575 39.1089 1.65929C39.3237 1.97283 39.4385 2.34154 39.4385 2.71875V12.25H49.2032C49.59 12.2493 49.9682 12.3608 50.29 12.5702C50.6118 12.7796 50.8627 13.0776 51.0108 13.4263C51.1589 13.775 51.1976 14.1589 51.1219 14.5291C51.0463 14.8993 50.8597 15.2393 50.5859 15.5059L42.7741 23.1309C42.5924 23.3078 42.3768 23.448 42.1396 23.5435C41.9023 23.639 41.6481 23.688 41.3915 23.6875H30.4823L27.592 26.5126C27.7465 27.0778 27.7657 27.6701 27.6484 28.2437C27.531 28.8173 27.2801 29.3569 26.915 29.8208C26.55 30.2848 26.0806 30.6605 25.5431 30.9192C25.0055 31.1778 24.4143 31.3124 23.815 31.3125C22.7791 31.3125 21.7856 30.9108 21.0531 30.1959C20.3207 29.4809 19.9091 28.5112 19.9091 27.5L19.913 27.3246C19.9398 26.7551 20.0971 26.1987 20.3734 25.6964C20.6496 25.1941 21.0377 24.7587 21.5092 24.4221C21.9806 24.0856 22.5234 23.8565 23.0975 23.7518C23.6716 23.6471 24.2625 23.6695 24.8266 23.8171L27.7209 20.9921V10.3438C27.7204 10.0933 27.7706 9.84512 27.8684 9.61355C27.9663 9.38197 28.1099 9.17148 28.2912 8.99413L36.1029 1.36913C36.3762 1.1027 36.7244 0.921375 37.1033 0.848084C37.4822 0.774792 37.8748 0.812827 38.2316 0.957376V0.957376ZM40.5829 19.875L44.4888 16.0625H37.4856C36.9676 16.0625 36.4709 15.8617 36.1046 15.5042C35.7384 15.1467 35.5326 14.6618 35.5326 14.1563V7.32044L31.6268 11.1329V19.875H40.5829ZM47.0355 24.3585C47.7094 29.1056 46.8388 33.9394 44.5466 38.1776C42.2544 42.4157 38.6564 45.8441 34.2605 47.9788C29.8646 50.1134 24.8929 50.8465 20.0471 50.0746C15.2014 49.3026 10.7265 47.0646 7.254 43.6765C3.78155 40.2884 1.48698 35.9213 0.694234 31.1917C-0.0985143 26.4621 0.650595 21.6089 2.83581 17.3173C5.02103 13.0256 8.53198 9.51232 12.873 7.27328C17.2141 5.03423 22.1659 4.18256 27.0296 4.8385L25.5336 6.29869C24.9145 6.90307 24.442 7.63523 24.1509 8.44132L23.815 8.43751C19.9383 8.43807 16.1494 9.56483 12.931 11.6743C9.71252 13.7838 7.21007 16.7805 5.74232 20.2829C4.27458 23.7852 3.90795 27.6347 4.68912 31.3412C5.47029 35.0476 7.36392 38.4432 10.1289 41.0957C12.8938 43.7481 16.4049 45.5373 20.2151 46.2353C24.0253 46.9334 27.9621 46.5088 31.5243 45.0156C35.0864 43.5224 38.1127 41.0282 40.2176 37.8505C42.3226 34.6729 43.4111 30.9556 43.3444 27.1721C44.1671 26.8881 44.9144 26.4283 45.5317 25.8263L47.0315 24.3585H47.0355ZM23.815 14.1563C21.1112 14.1563 18.4682 14.9389 16.2201 16.4051C13.9719 17.8713 12.2198 19.9553 11.1851 22.3936C10.1504 24.8318 9.87965 27.5148 10.4071 30.1033C10.9346 32.6917 12.2366 35.0693 14.1485 36.9355C16.0603 38.8016 18.4962 40.0725 21.148 40.5874C23.7999 41.1022 26.5485 40.838 29.0465 39.828C31.5445 38.8181 33.6795 37.1078 35.1817 34.9134C36.6838 32.719 37.4856 30.1392 37.4856 27.5H33.5797C33.5797 29.3851 33.007 31.2279 31.9341 32.7953C30.8611 34.3627 29.3361 35.5843 27.5518 36.3057C25.7675 37.0271 23.8042 37.2159 21.91 36.8481C20.0159 36.4804 18.276 35.5726 16.9103 34.2396C15.5447 32.9067 14.6147 31.2084 14.238 29.3595C13.8612 27.5106 14.0546 25.5942 14.7936 23.8526C15.5327 22.111 16.7843 20.6224 18.39 19.5751C19.9958 18.5278 21.8837 17.9688 23.815 17.9688V14.1563Z" fill="#575757"/>
</svg>
