<svg width="79" height="62" viewBox="0 0 79 62" fill="none" xmlns="http://www.w3.org/2000/svg">
<path d="M59.6626 23.1467H41.137V29.4255C41.137 33.985 37.8365 38.1426 33.2697 38.599C28.0179 39.1236 23.5864 35.0371 23.5864 29.9267V15.3134L20.5991 17.0968C15.2011 20.3258 11.8909 26.1251 11.8909 32.3966L2.14053 38.0022C0.281879 39.0616 -0.37383 41.4382 0.708455 43.2845L10.4588 60.065C11.5405 61.9113 13.9323 62.5469 15.791 61.4876L28.3933 54.2535H45.042C49.3382 54.2535 52.8422 50.7727 52.8422 46.505C56.0732 46.505 58.6924 43.9032 58.6924 40.6936V34.8785H59.6674C61.2823 34.8785 62.5925 33.577 62.5925 31.9728V26.1614C62.5877 24.5511 61.2836 23.1467 59.6626 23.1467ZM77.6641 18.7155L67.9199 1.93504C66.8382 0.0886996 64.4463 -0.546924 62.5877 0.512449L49.9854 7.74646H42.3594C37.7463 7.74646 33.227 9.03102 29.3062 11.4549C28.1812 12.1656 27.4865 13.4005 27.4865 14.7323V30.0357C27.4865 32.715 29.6657 34.8785 32.3617 34.8785C35.0588 34.8785 37.2368 32.7138 37.2368 30.0357V19.2724H59.6626C63.4323 19.2724 66.4878 22.3077 66.4878 26.0524V29.503L76.2381 23.9034C78.1029 22.9409 78.7366 20.5679 77.6641 18.7155Z" fill="#575757"/>
</svg>
