<svg width="70" height="48" viewBox="0 0 70 48" fill="none" xmlns="http://www.w3.org/2000/svg">
<path d="M45.3634 23.995C45.3634 30.3596 40.7253 35.5191 35.0037 35.5191C29.2822 35.5191 24.6441 30.3596 24.6441 23.995C24.6441 17.6303 29.2822 12.4708 35.0037 12.4708C40.7253 12.4708 45.3634 17.6304 45.3634 23.995ZM35.0225 0C29.0985 0.0305108 22.9582 1.705 17.1455 4.9109C12.8296 7.38928 8.62364 10.8859 4.97262 15.2018C3.17942 17.405 0.892243 20.595 0.522461 23.9987C0.566161 26.947 3.28994 30.5862 4.97262 32.7956C8.39634 36.942 12.4928 40.3411 17.1455 43.0891C22.5661 46.1436 28.5659 47.9022 35.0225 48C40.952 47.969 47.091 46.2752 52.8973 43.0891C57.2131 40.6107 61.4212 37.1115 65.0723 32.7956C66.8654 30.5925 69.1526 27.4024 69.5225 23.9987C69.4788 21.0504 66.755 17.4111 65.0723 15.2017C61.6486 11.0553 57.5499 7.65887 52.8973 4.91077C47.4795 1.85862 41.4649 0.112095 35.0225 0ZM35.0181 5.95848C43.9949 5.95848 51.2719 14.0364 51.2719 24.0013C51.2719 33.9661 43.9949 42.0441 35.0181 42.0441C26.0412 42.0441 18.7643 33.966 18.7643 24.0013C18.7643 14.0364 26.0412 5.95848 35.0181 5.95848Z" fill="#575757"/>
</svg>
